<mxfile>
    <diagram id="vvBdfMr015Pf-CxKplJR" name="Page-1">
        <mxGraphModel dx="1113" dy="746" grid="1" gridSize="10" guides="1" tooltips="1" connect="1" arrows="1" fold="1" page="1" pageScale="1" pageWidth="850" pageHeight="1100" math="0" shadow="0">
            <root>
                <mxCell id="0"/>
                <mxCell id="1" parent="0"/>
                <mxCell id="265" value="" style="rounded=0;whiteSpace=wrap;html=1;" parent="1" vertex="1">
                    <mxGeometry x="2240" y="69" width="400" height="431" as="geometry"/>
                </mxCell>
                <mxCell id="345" value="" style="rounded=1;whiteSpace=wrap;html=1;arcSize=4;" parent="1" vertex="1">
                    <mxGeometry x="2416" y="170" width="216" height="240" as="geometry"/>
                </mxCell>
                <mxCell id="63" value="" style="rounded=0;whiteSpace=wrap;html=1;" parent="1" vertex="1">
                    <mxGeometry x="40" y="70" width="400" height="850" as="geometry"/>
                </mxCell>
                <mxCell id="60" value="" style="rounded=0;whiteSpace=wrap;html=1;" parent="1" vertex="1">
                    <mxGeometry x="60" y="765" width="360" height="122" as="geometry"/>
                </mxCell>
                <mxCell id="5" value="&lt;span style=&quot;font-size: 14px&quot;&gt;&lt;b&gt;Event-Startseite&lt;/b&gt;&lt;/span&gt;" style="text;html=1;strokeColor=none;fillColor=none;align=left;verticalAlign=middle;whiteSpace=wrap;rounded=0;" parent="1" vertex="1">
                    <mxGeometry x="40" y="40" width="120" height="20" as="geometry"/>
                </mxCell>
                <mxCell id="12" value="&lt;b&gt;EVENTS&lt;/b&gt;" style="text;html=1;strokeColor=none;fillColor=none;align=left;verticalAlign=middle;whiteSpace=wrap;rounded=0;" parent="1" vertex="1">
                    <mxGeometry x="60" y="90" width="60" height="20" as="geometry"/>
                </mxCell>
                <mxCell id="13" value="Alle Events" style="text;html=1;strokeColor=none;fillColor=none;align=left;verticalAlign=middle;whiteSpace=wrap;rounded=0;" parent="1" vertex="1">
                    <mxGeometry x="210" y="90" width="70" height="20" as="geometry"/>
                </mxCell>
                <mxCell id="14" value="Registrieren" style="text;html=1;strokeColor=none;fillColor=none;align=left;verticalAlign=middle;whiteSpace=wrap;rounded=0;" parent="1" vertex="1">
                    <mxGeometry x="290" y="90" width="70" height="20" as="geometry"/>
                </mxCell>
                <mxCell id="15" value="Login" style="rounded=1;whiteSpace=wrap;html=1;" parent="1" vertex="1">
                    <mxGeometry x="370" y="90" width="50" height="20" as="geometry"/>
                </mxCell>
                <mxCell id="19" value="Nach Eventnamen suchen" style="rounded=1;whiteSpace=wrap;html=1;arcSize=50;" parent="1" vertex="1">
                    <mxGeometry x="111" y="150" width="255" height="30" as="geometry"/>
                </mxCell>
                <mxCell id="22" value="Suche" style="text;html=1;strokeColor=none;fillColor=none;align=center;verticalAlign=middle;whiteSpace=wrap;rounded=0;" parent="1" vertex="1">
                    <mxGeometry x="220" y="130" width="40" height="20" as="geometry"/>
                </mxCell>
                <mxCell id="24" value="Suchen" style="rounded=1;whiteSpace=wrap;html=1;" parent="1" vertex="1">
                    <mxGeometry x="313" y="190" width="50" height="30" as="geometry"/>
                </mxCell>
                <mxCell id="32" value="" style="group" parent="1" vertex="1" connectable="0">
                    <mxGeometry x="113" y="190" width="95" height="30" as="geometry"/>
                </mxCell>
                <mxCell id="20" value="Startdatum" style="rounded=0;whiteSpace=wrap;html=1;" parent="32" vertex="1">
                    <mxGeometry width="70" height="30" as="geometry"/>
                </mxCell>
                <mxCell id="30" value="" style="rounded=0;whiteSpace=wrap;html=1;" parent="32" vertex="1">
                    <mxGeometry x="70" width="25" height="30" as="geometry"/>
                </mxCell>
                <mxCell id="31" value="" style="triangle;whiteSpace=wrap;html=1;rotation=90;" parent="32" vertex="1">
                    <mxGeometry x="77.5" y="10" width="10" height="10" as="geometry"/>
                </mxCell>
                <mxCell id="33" value="" style="group" parent="1" vertex="1" connectable="0">
                    <mxGeometry x="213" y="190" width="95" height="30" as="geometry"/>
                </mxCell>
                <mxCell id="26" value="" style="rounded=0;whiteSpace=wrap;html=1;" parent="33" vertex="1">
                    <mxGeometry x="70" width="25" height="30" as="geometry"/>
                </mxCell>
                <mxCell id="21" value="Enddatum" style="rounded=0;whiteSpace=wrap;html=1;" parent="33" vertex="1">
                    <mxGeometry width="70" height="30" as="geometry"/>
                </mxCell>
                <mxCell id="29" value="" style="triangle;whiteSpace=wrap;html=1;rotation=90;" parent="33" vertex="1">
                    <mxGeometry x="77.5" y="10" width="10" height="10" as="geometry"/>
                </mxCell>
                <mxCell id="34" value="Event-Promo&lt;br&gt;(Zufallsauswahl und zukünftiges Startdatum)" style="rounded=0;whiteSpace=wrap;html=1;" parent="1" vertex="1">
                    <mxGeometry x="60" y="230" width="360" height="110" as="geometry"/>
                </mxCell>
                <mxCell id="35" value="Events der nächsten Tage" style="text;html=1;strokeColor=none;fillColor=none;align=center;verticalAlign=middle;whiteSpace=wrap;rounded=0;" parent="1" vertex="1">
                    <mxGeometry x="125" y="362" width="230" height="33" as="geometry"/>
                </mxCell>
                <mxCell id="36" value="Bild" style="rounded=0;whiteSpace=wrap;html=1;" parent="1" vertex="1">
                    <mxGeometry x="60" y="396" width="88" height="92" as="geometry"/>
                </mxCell>
                <mxCell id="42" value="&lt;font style=&quot;font-size: 9px;&quot;&gt;Eventname&lt;br style=&quot;font-size: 9px;&quot;&gt;Start- &amp;amp; Enddatum&lt;/font&gt;" style="text;html=1;strokeColor=none;fillColor=none;align=left;verticalAlign=middle;whiteSpace=wrap;rounded=0;fontSize=9;" parent="1" vertex="1">
                    <mxGeometry x="60" y="488" width="80" height="32" as="geometry"/>
                </mxCell>
                <mxCell id="45" value="Details" style="rounded=1;whiteSpace=wrap;html=1;fontSize=10;" parent="1" vertex="1">
                    <mxGeometry x="60" y="518" width="50" height="20" as="geometry"/>
                </mxCell>
                <mxCell id="51" value="Alle Events anzeigen" style="rounded=1;whiteSpace=wrap;html=1;" parent="1" vertex="1">
                    <mxGeometry x="167" y="706" width="145" height="20" as="geometry"/>
                </mxCell>
                <mxCell id="52" value="Redaktionsbereich" style="text;html=1;strokeColor=none;fillColor=none;align=left;verticalAlign=middle;whiteSpace=wrap;rounded=0;" parent="1" vertex="1">
                    <mxGeometry x="79" y="769" width="110" height="20" as="geometry"/>
                </mxCell>
                <mxCell id="53" value="Username" style="text;html=1;strokeColor=none;fillColor=none;align=left;verticalAlign=middle;whiteSpace=wrap;rounded=0;" parent="1" vertex="1">
                    <mxGeometry x="79" y="794" width="110" height="20" as="geometry"/>
                </mxCell>
                <mxCell id="54" value="Passwort" style="text;html=1;strokeColor=none;fillColor=none;align=left;verticalAlign=middle;whiteSpace=wrap;rounded=0;" parent="1" vertex="1">
                    <mxGeometry x="254" y="794" width="110" height="20" as="geometry"/>
                </mxCell>
                <mxCell id="55" value="&lt;u&gt;Registrieren&lt;/u&gt;" style="text;html=1;strokeColor=none;fillColor=none;align=center;verticalAlign=middle;whiteSpace=wrap;rounded=0;" parent="1" vertex="1">
                    <mxGeometry x="264" y="852" width="75" height="20" as="geometry"/>
                </mxCell>
                <mxCell id="57" value="Login" style="rounded=1;whiteSpace=wrap;html=1;" parent="1" vertex="1">
                    <mxGeometry x="354" y="852" width="50" height="20" as="geometry"/>
                </mxCell>
                <mxCell id="58" value="" style="rounded=1;whiteSpace=wrap;html=1;arcSize=50;" parent="1" vertex="1">
                    <mxGeometry x="79" y="817" width="155" height="24" as="geometry"/>
                </mxCell>
                <mxCell id="62" value="" style="rounded=1;whiteSpace=wrap;html=1;arcSize=50;" parent="1" vertex="1">
                    <mxGeometry x="251.5" y="817" width="155" height="24" as="geometry"/>
                </mxCell>
                <mxCell id="65" value="Footer" style="rounded=0;whiteSpace=wrap;html=1;" parent="1" vertex="1">
                    <mxGeometry x="40" y="920" width="400" height="50" as="geometry"/>
                </mxCell>
                <mxCell id="67" value="" style="rounded=0;whiteSpace=wrap;html=1;" parent="1" vertex="1">
                    <mxGeometry x="480" y="70" width="400" height="850" as="geometry"/>
                </mxCell>
                <mxCell id="68" value="&lt;b&gt;EVENTS&lt;/b&gt;" style="text;html=1;strokeColor=none;fillColor=none;align=left;verticalAlign=middle;whiteSpace=wrap;rounded=0;" parent="1" vertex="1">
                    <mxGeometry x="500" y="90" width="60" height="20" as="geometry"/>
                </mxCell>
                <mxCell id="69" value="Alle Events" style="text;html=1;strokeColor=none;fillColor=none;align=left;verticalAlign=middle;whiteSpace=wrap;rounded=0;" parent="1" vertex="1">
                    <mxGeometry x="650" y="90" width="70" height="20" as="geometry"/>
                </mxCell>
                <mxCell id="70" value="Registrieren" style="text;html=1;strokeColor=none;fillColor=none;align=left;verticalAlign=middle;whiteSpace=wrap;rounded=0;" parent="1" vertex="1">
                    <mxGeometry x="730" y="90" width="70" height="20" as="geometry"/>
                </mxCell>
                <mxCell id="71" value="Login" style="rounded=1;whiteSpace=wrap;html=1;" parent="1" vertex="1">
                    <mxGeometry x="810" y="90" width="50" height="20" as="geometry"/>
                </mxCell>
                <mxCell id="72" value="Nach Eventnamen suchen" style="rounded=1;whiteSpace=wrap;html=1;arcSize=50;" parent="1" vertex="1">
                    <mxGeometry x="551" y="150" width="255" height="30" as="geometry"/>
                </mxCell>
                <mxCell id="73" value="Suche" style="text;html=1;strokeColor=none;fillColor=none;align=center;verticalAlign=middle;whiteSpace=wrap;rounded=0;" parent="1" vertex="1">
                    <mxGeometry x="660" y="130" width="40" height="20" as="geometry"/>
                </mxCell>
                <mxCell id="74" value="Suchen" style="rounded=1;whiteSpace=wrap;html=1;" parent="1" vertex="1">
                    <mxGeometry x="753" y="190" width="50" height="30" as="geometry"/>
                </mxCell>
                <mxCell id="75" value="" style="group" parent="1" vertex="1" connectable="0">
                    <mxGeometry x="553" y="190" width="95" height="30" as="geometry"/>
                </mxCell>
                <mxCell id="76" value="Startdatum" style="rounded=0;whiteSpace=wrap;html=1;" parent="75" vertex="1">
                    <mxGeometry width="70" height="30" as="geometry"/>
                </mxCell>
                <mxCell id="77" value="" style="rounded=0;whiteSpace=wrap;html=1;" parent="75" vertex="1">
                    <mxGeometry x="70" width="25" height="30" as="geometry"/>
                </mxCell>
                <mxCell id="78" value="" style="triangle;whiteSpace=wrap;html=1;rotation=90;" parent="75" vertex="1">
                    <mxGeometry x="77.5" y="10" width="10" height="10" as="geometry"/>
                </mxCell>
                <mxCell id="79" value="" style="group" parent="1" vertex="1" connectable="0">
                    <mxGeometry x="653" y="190" width="95" height="30" as="geometry"/>
                </mxCell>
                <mxCell id="80" value="" style="rounded=0;whiteSpace=wrap;html=1;" parent="79" vertex="1">
                    <mxGeometry x="70" width="25" height="30" as="geometry"/>
                </mxCell>
                <mxCell id="81" value="Enddatum" style="rounded=0;whiteSpace=wrap;html=1;" parent="79" vertex="1">
                    <mxGeometry width="70" height="30" as="geometry"/>
                </mxCell>
                <mxCell id="82" value="" style="triangle;whiteSpace=wrap;html=1;rotation=90;" parent="79" vertex="1">
                    <mxGeometry x="77.5" y="10" width="10" height="10" as="geometry"/>
                </mxCell>
                <mxCell id="83" value="Bild" style="rounded=0;whiteSpace=wrap;html=1;" parent="1" vertex="1">
                    <mxGeometry x="500" y="250" width="110" height="110" as="geometry"/>
                </mxCell>
                <mxCell id="84" value="Bild" style="rounded=0;whiteSpace=wrap;html=1;" parent="1" vertex="1">
                    <mxGeometry x="750" y="250" width="110" height="110" as="geometry"/>
                </mxCell>
                <mxCell id="85" value="Bild" style="rounded=0;whiteSpace=wrap;html=1;" parent="1" vertex="1">
                    <mxGeometry x="625" y="250" width="110" height="110" as="geometry"/>
                </mxCell>
                <mxCell id="86" value="Eventname&lt;br&gt;Start- &amp;amp; Enddatum" style="text;html=1;strokeColor=none;fillColor=none;align=left;verticalAlign=middle;whiteSpace=wrap;rounded=0;" parent="1" vertex="1">
                    <mxGeometry x="500" y="364" width="110" height="40" as="geometry"/>
                </mxCell>
                <mxCell id="87" value="Eventname&lt;br&gt;Start- &amp;amp; Enddatum" style="text;html=1;strokeColor=none;fillColor=none;align=left;verticalAlign=middle;whiteSpace=wrap;rounded=0;" parent="1" vertex="1">
                    <mxGeometry x="625" y="364" width="110" height="40" as="geometry"/>
                </mxCell>
                <mxCell id="88" value="Eventname&lt;br&gt;Start- &amp;amp; Enddatum" style="text;html=1;strokeColor=none;fillColor=none;align=left;verticalAlign=middle;whiteSpace=wrap;rounded=0;" parent="1" vertex="1">
                    <mxGeometry x="750" y="364" width="110" height="40" as="geometry"/>
                </mxCell>
                <mxCell id="89" value="Details" style="rounded=1;whiteSpace=wrap;html=1;" parent="1" vertex="1">
                    <mxGeometry x="500" y="409" width="50" height="20" as="geometry"/>
                </mxCell>
                <mxCell id="90" value="Details" style="rounded=1;whiteSpace=wrap;html=1;" parent="1" vertex="1">
                    <mxGeometry x="625" y="409" width="50" height="20" as="geometry"/>
                </mxCell>
                <mxCell id="91" value="Details" style="rounded=1;whiteSpace=wrap;html=1;" parent="1" vertex="1">
                    <mxGeometry x="750" y="409" width="50" height="20" as="geometry"/>
                </mxCell>
                <mxCell id="92" value="Home" style="text;html=1;strokeColor=none;fillColor=none;align=left;verticalAlign=middle;whiteSpace=wrap;rounded=0;" parent="1" vertex="1">
                    <mxGeometry x="160" y="90" width="42" height="20" as="geometry"/>
                </mxCell>
                <mxCell id="94" value="Home" style="text;html=1;strokeColor=none;fillColor=none;align=left;verticalAlign=middle;whiteSpace=wrap;rounded=0;" parent="1" vertex="1">
                    <mxGeometry x="600" y="90" width="42" height="20" as="geometry"/>
                </mxCell>
                <mxCell id="95" value="Bild" style="rounded=0;whiteSpace=wrap;html=1;" parent="1" vertex="1">
                    <mxGeometry x="498.5" y="460" width="110" height="110" as="geometry"/>
                </mxCell>
                <mxCell id="96" value="Bild" style="rounded=0;whiteSpace=wrap;html=1;" parent="1" vertex="1">
                    <mxGeometry x="748.5" y="460" width="110" height="110" as="geometry"/>
                </mxCell>
                <mxCell id="97" value="Bild" style="rounded=0;whiteSpace=wrap;html=1;" parent="1" vertex="1">
                    <mxGeometry x="623.5" y="460" width="110" height="110" as="geometry"/>
                </mxCell>
                <mxCell id="98" value="Eventname&lt;br&gt;Start- &amp;amp; Enddatum" style="text;html=1;strokeColor=none;fillColor=none;align=left;verticalAlign=middle;whiteSpace=wrap;rounded=0;" parent="1" vertex="1">
                    <mxGeometry x="498.5" y="574" width="110" height="40" as="geometry"/>
                </mxCell>
                <mxCell id="99" value="Eventname&lt;br&gt;Start- &amp;amp; Enddatum" style="text;html=1;strokeColor=none;fillColor=none;align=left;verticalAlign=middle;whiteSpace=wrap;rounded=0;" parent="1" vertex="1">
                    <mxGeometry x="623.5" y="574" width="110" height="40" as="geometry"/>
                </mxCell>
                <mxCell id="100" value="Eventname&lt;br&gt;Start- &amp;amp; Enddatum" style="text;html=1;strokeColor=none;fillColor=none;align=left;verticalAlign=middle;whiteSpace=wrap;rounded=0;" parent="1" vertex="1">
                    <mxGeometry x="748.5" y="574" width="110" height="40" as="geometry"/>
                </mxCell>
                <mxCell id="101" value="Details" style="rounded=1;whiteSpace=wrap;html=1;" parent="1" vertex="1">
                    <mxGeometry x="498.5" y="619" width="50" height="20" as="geometry"/>
                </mxCell>
                <mxCell id="102" value="Details" style="rounded=1;whiteSpace=wrap;html=1;" parent="1" vertex="1">
                    <mxGeometry x="623.5" y="619" width="50" height="20" as="geometry"/>
                </mxCell>
                <mxCell id="103" value="Details" style="rounded=1;whiteSpace=wrap;html=1;" parent="1" vertex="1">
                    <mxGeometry x="748.5" y="619" width="50" height="20" as="geometry"/>
                </mxCell>
                <mxCell id="104" value="Bild" style="rounded=0;whiteSpace=wrap;html=1;" parent="1" vertex="1">
                    <mxGeometry x="498.5" y="670" width="110" height="110" as="geometry"/>
                </mxCell>
                <mxCell id="105" value="Bild" style="rounded=0;whiteSpace=wrap;html=1;" parent="1" vertex="1">
                    <mxGeometry x="748.5" y="670" width="110" height="110" as="geometry"/>
                </mxCell>
                <mxCell id="106" value="Bild" style="rounded=0;whiteSpace=wrap;html=1;" parent="1" vertex="1">
                    <mxGeometry x="623.5" y="670" width="110" height="110" as="geometry"/>
                </mxCell>
                <mxCell id="107" value="Eventname&lt;br&gt;Start- &amp;amp; Enddatum" style="text;html=1;strokeColor=none;fillColor=none;align=left;verticalAlign=middle;whiteSpace=wrap;rounded=0;" parent="1" vertex="1">
                    <mxGeometry x="498.5" y="784" width="110" height="40" as="geometry"/>
                </mxCell>
                <mxCell id="108" value="Eventname&lt;br&gt;Start- &amp;amp; Enddatum" style="text;html=1;strokeColor=none;fillColor=none;align=left;verticalAlign=middle;whiteSpace=wrap;rounded=0;" parent="1" vertex="1">
                    <mxGeometry x="623.5" y="784" width="110" height="40" as="geometry"/>
                </mxCell>
                <mxCell id="109" value="Eventname&lt;br&gt;Start- &amp;amp; Enddatum" style="text;html=1;strokeColor=none;fillColor=none;align=left;verticalAlign=middle;whiteSpace=wrap;rounded=0;" parent="1" vertex="1">
                    <mxGeometry x="748.5" y="784" width="110" height="40" as="geometry"/>
                </mxCell>
                <mxCell id="110" value="Details" style="rounded=1;whiteSpace=wrap;html=1;" parent="1" vertex="1">
                    <mxGeometry x="498.5" y="829" width="50" height="20" as="geometry"/>
                </mxCell>
                <mxCell id="111" value="Details" style="rounded=1;whiteSpace=wrap;html=1;" parent="1" vertex="1">
                    <mxGeometry x="623.5" y="829" width="50" height="20" as="geometry"/>
                </mxCell>
                <mxCell id="112" value="Details" style="rounded=1;whiteSpace=wrap;html=1;" parent="1" vertex="1">
                    <mxGeometry x="748.5" y="829" width="50" height="20" as="geometry"/>
                </mxCell>
                <mxCell id="132" value="" style="group" parent="1" vertex="1" connectable="0">
                    <mxGeometry x="590" y="872" width="174" height="20" as="geometry"/>
                </mxCell>
                <mxCell id="113" value="1" style="rounded=1;whiteSpace=wrap;html=1;" parent="132" vertex="1">
                    <mxGeometry x="34" width="17" height="20" as="geometry"/>
                </mxCell>
                <mxCell id="114" value="2" style="rounded=1;whiteSpace=wrap;html=1;" parent="132" vertex="1">
                    <mxGeometry x="56" width="17" height="20" as="geometry"/>
                </mxCell>
                <mxCell id="116" value="3" style="rounded=1;whiteSpace=wrap;html=1;" parent="132" vertex="1">
                    <mxGeometry x="79" width="17" height="20" as="geometry"/>
                </mxCell>
                <mxCell id="118" value="4" style="rounded=1;whiteSpace=wrap;html=1;" parent="132" vertex="1">
                    <mxGeometry x="101" width="17" height="20" as="geometry"/>
                </mxCell>
                <mxCell id="119" value="5" style="rounded=1;whiteSpace=wrap;html=1;" parent="132" vertex="1">
                    <mxGeometry x="123" width="17" height="20" as="geometry"/>
                </mxCell>
                <mxCell id="120" value="&amp;lt;" style="rounded=1;whiteSpace=wrap;html=1;" parent="132" vertex="1">
                    <mxGeometry width="17" height="20" as="geometry"/>
                </mxCell>
                <mxCell id="122" value="&amp;gt;" style="rounded=1;whiteSpace=wrap;html=1;" parent="132" vertex="1">
                    <mxGeometry x="157" width="17" height="20" as="geometry"/>
                </mxCell>
                <mxCell id="133" value="Footer" style="rounded=0;whiteSpace=wrap;html=1;" parent="1" vertex="1">
                    <mxGeometry x="480" y="920" width="400" height="50" as="geometry"/>
                </mxCell>
                <mxCell id="134" value="" style="rounded=0;whiteSpace=wrap;html=1;" parent="1" vertex="1">
                    <mxGeometry x="920" y="70" width="400" height="400" as="geometry"/>
                </mxCell>
                <mxCell id="135" value="&lt;b&gt;EVENTS&lt;/b&gt;" style="text;html=1;strokeColor=none;fillColor=none;align=left;verticalAlign=middle;whiteSpace=wrap;rounded=0;" parent="1" vertex="1">
                    <mxGeometry x="940" y="90" width="60" height="20" as="geometry"/>
                </mxCell>
                <mxCell id="136" value="Alle Events" style="text;html=1;strokeColor=none;fillColor=none;align=left;verticalAlign=middle;whiteSpace=wrap;rounded=0;" parent="1" vertex="1">
                    <mxGeometry x="1090" y="90" width="70" height="20" as="geometry"/>
                </mxCell>
                <mxCell id="137" value="Registrieren" style="text;html=1;strokeColor=none;fillColor=none;align=left;verticalAlign=middle;whiteSpace=wrap;rounded=0;" parent="1" vertex="1">
                    <mxGeometry x="1170" y="90" width="70" height="20" as="geometry"/>
                </mxCell>
                <mxCell id="138" value="Login" style="rounded=1;whiteSpace=wrap;html=1;" parent="1" vertex="1">
                    <mxGeometry x="1250" y="90" width="50" height="20" as="geometry"/>
                </mxCell>
                <mxCell id="150" value="Bild" style="rounded=0;whiteSpace=wrap;html=1;" parent="1" vertex="1">
                    <mxGeometry x="940" y="190" width="170" height="130" as="geometry"/>
                </mxCell>
                <mxCell id="153" value="Eventname&lt;br&gt;&lt;br&gt;Startdatum&lt;br&gt;Enddatum" style="text;html=1;strokeColor=none;fillColor=none;align=left;verticalAlign=middle;whiteSpace=wrap;rounded=0;" parent="1" vertex="1">
                    <mxGeometry x="940" y="120" width="110" height="70" as="geometry"/>
                </mxCell>
                <mxCell id="159" value="Home" style="text;html=1;strokeColor=none;fillColor=none;align=left;verticalAlign=middle;whiteSpace=wrap;rounded=0;" parent="1" vertex="1">
                    <mxGeometry x="1040" y="90" width="42" height="20" as="geometry"/>
                </mxCell>
                <mxCell id="186" value="Footer" style="rounded=0;whiteSpace=wrap;html=1;" parent="1" vertex="1">
                    <mxGeometry x="920" y="451" width="400" height="50" as="geometry"/>
                </mxCell>
                <mxCell id="187" value="Lorem ipsum dolor sit amet, consectetur adipiscing elit, sed do eiusmod tempor incididunt ut labore et dolore magna aliqua. Ut enim ad minim veniam, quis nostrud exercitation ullamco laboris nisi ut aliquip ex ea commodo consequat.&lt;br&gt;&lt;br&gt;Duis aute irure dolor in reprehenderit in voluptate velit esse cillum dolore eu fugiat nulla pariatur. Excepteur sint occaecat cupidatat non proident, sunt in culpa qui officia deserunt mollit anim id est laborum." style="text;html=1;strokeColor=none;fillColor=none;align=left;verticalAlign=middle;whiteSpace=wrap;rounded=0;" parent="1" vertex="1">
                    <mxGeometry x="1125" y="176" width="175" height="261" as="geometry"/>
                </mxCell>
                <mxCell id="188" value="&lt;span style=&quot;font-size: 14px&quot;&gt;&lt;b&gt;Alle Events - Zugleich Suchergebnisseite&lt;/b&gt;&lt;/span&gt;" style="text;html=1;strokeColor=none;fillColor=none;align=left;verticalAlign=middle;whiteSpace=wrap;rounded=0;" parent="1" vertex="1">
                    <mxGeometry x="485" y="40" width="385" height="20" as="geometry"/>
                </mxCell>
                <mxCell id="189" value="&lt;span style=&quot;font-size: 14px&quot;&gt;&lt;b&gt;Event-Detailseite&lt;/b&gt;&lt;/span&gt;" style="text;html=1;strokeColor=none;fillColor=none;align=left;verticalAlign=middle;whiteSpace=wrap;rounded=0;" parent="1" vertex="1">
                    <mxGeometry x="920" y="40" width="385" height="20" as="geometry"/>
                </mxCell>
                <mxCell id="190" value="" style="rounded=0;whiteSpace=wrap;html=1;" parent="1" vertex="1">
                    <mxGeometry x="1360" y="70" width="400" height="400" as="geometry"/>
                </mxCell>
                <mxCell id="191" value="&lt;b&gt;EVENTS&lt;/b&gt;" style="text;html=1;strokeColor=none;fillColor=none;align=left;verticalAlign=middle;whiteSpace=wrap;rounded=0;" parent="1" vertex="1">
                    <mxGeometry x="1380" y="90" width="60" height="20" as="geometry"/>
                </mxCell>
                <mxCell id="192" value="Alle Events" style="text;html=1;strokeColor=none;fillColor=none;align=left;verticalAlign=middle;whiteSpace=wrap;rounded=0;" parent="1" vertex="1">
                    <mxGeometry x="1530" y="90" width="70" height="20" as="geometry"/>
                </mxCell>
                <mxCell id="193" value="Registrieren" style="text;html=1;strokeColor=none;fillColor=none;align=left;verticalAlign=middle;whiteSpace=wrap;rounded=0;" parent="1" vertex="1">
                    <mxGeometry x="1610" y="90" width="70" height="20" as="geometry"/>
                </mxCell>
                <mxCell id="194" value="Login" style="rounded=1;whiteSpace=wrap;html=1;" parent="1" vertex="1">
                    <mxGeometry x="1690" y="90" width="50" height="20" as="geometry"/>
                </mxCell>
                <mxCell id="196" value="Registrieren" style="text;html=1;strokeColor=none;fillColor=none;align=left;verticalAlign=middle;whiteSpace=wrap;rounded=0;" parent="1" vertex="1">
                    <mxGeometry x="1380" y="130" width="110" height="40" as="geometry"/>
                </mxCell>
                <mxCell id="197" value="Home" style="text;html=1;strokeColor=none;fillColor=none;align=left;verticalAlign=middle;whiteSpace=wrap;rounded=0;" parent="1" vertex="1">
                    <mxGeometry x="1480" y="90" width="42" height="20" as="geometry"/>
                </mxCell>
                <mxCell id="198" value="Footer" style="rounded=0;whiteSpace=wrap;html=1;" parent="1" vertex="1">
                    <mxGeometry x="1360" y="440" width="400" height="50" as="geometry"/>
                </mxCell>
                <mxCell id="200" value="&lt;span style=&quot;font-size: 14px&quot;&gt;&lt;b&gt;Registierungs-Seite&lt;/b&gt;&lt;/span&gt;" style="text;html=1;strokeColor=none;fillColor=none;align=left;verticalAlign=middle;whiteSpace=wrap;rounded=0;" parent="1" vertex="1">
                    <mxGeometry x="1360" y="40" width="385" height="20" as="geometry"/>
                </mxCell>
                <mxCell id="203" value="Username / Emailadresse" style="text;html=1;strokeColor=none;fillColor=none;align=left;verticalAlign=middle;whiteSpace=wrap;rounded=0;" parent="1" vertex="1">
                    <mxGeometry x="1380" y="170" width="150" height="20" as="geometry"/>
                </mxCell>
                <mxCell id="204" value="Passwort" style="text;html=1;strokeColor=none;fillColor=none;align=left;verticalAlign=middle;whiteSpace=wrap;rounded=0;" parent="1" vertex="1">
                    <mxGeometry x="1382.5" y="243.5" width="110" height="20" as="geometry"/>
                </mxCell>
                <mxCell id="207" value="" style="rounded=1;whiteSpace=wrap;html=1;arcSize=50;" parent="1" vertex="1">
                    <mxGeometry x="1380" y="193" width="155" height="30" as="geometry"/>
                </mxCell>
                <mxCell id="208" value="" style="rounded=1;whiteSpace=wrap;html=1;arcSize=50;" parent="1" vertex="1">
                    <mxGeometry x="1380" y="266.5" width="155" height="30" as="geometry"/>
                </mxCell>
                <mxCell id="209" value="Passwort bestätigen" style="text;html=1;strokeColor=none;fillColor=none;align=left;verticalAlign=middle;whiteSpace=wrap;rounded=0;" parent="1" vertex="1">
                    <mxGeometry x="1582.5" y="243.5" width="127.5" height="20" as="geometry"/>
                </mxCell>
                <mxCell id="210" value="" style="rounded=1;whiteSpace=wrap;html=1;arcSize=50;" parent="1" vertex="1">
                    <mxGeometry x="1580" y="266.5" width="155" height="30" as="geometry"/>
                </mxCell>
                <mxCell id="211" value="Vor- und Nachname" style="text;html=1;strokeColor=none;fillColor=none;align=left;verticalAlign=middle;whiteSpace=wrap;rounded=0;" parent="1" vertex="1">
                    <mxGeometry x="1580" y="170" width="110" height="20" as="geometry"/>
                </mxCell>
                <mxCell id="212" value="" style="rounded=1;whiteSpace=wrap;html=1;arcSize=50;" parent="1" vertex="1">
                    <mxGeometry x="1580" y="193" width="155" height="30" as="geometry"/>
                </mxCell>
                <mxCell id="213" value="Registrieren" style="rounded=1;whiteSpace=wrap;html=1;" parent="1" vertex="1">
                    <mxGeometry x="1380" y="330" width="110" height="20" as="geometry"/>
                </mxCell>
                <mxCell id="230" value="Bild" style="rounded=0;whiteSpace=wrap;html=1;" parent="1" vertex="1">
                    <mxGeometry x="150" y="396" width="88" height="92" as="geometry"/>
                </mxCell>
                <mxCell id="231" value="Bild" style="rounded=0;whiteSpace=wrap;html=1;" parent="1" vertex="1">
                    <mxGeometry x="240" y="396" width="88" height="92" as="geometry"/>
                </mxCell>
                <mxCell id="232" value="Bild" style="rounded=0;whiteSpace=wrap;html=1;" parent="1" vertex="1">
                    <mxGeometry x="332" y="396" width="88" height="92" as="geometry"/>
                </mxCell>
                <mxCell id="234" value="&lt;font style=&quot;font-size: 9px;&quot;&gt;Eventname&lt;br style=&quot;font-size: 9px;&quot;&gt;Start- &amp;amp; Enddatum&lt;/font&gt;" style="text;html=1;strokeColor=none;fillColor=none;align=left;verticalAlign=middle;whiteSpace=wrap;rounded=0;fontSize=9;" parent="1" vertex="1">
                    <mxGeometry x="150" y="488" width="80" height="32" as="geometry"/>
                </mxCell>
                <mxCell id="235" value="Details" style="rounded=1;whiteSpace=wrap;html=1;fontSize=10;" parent="1" vertex="1">
                    <mxGeometry x="150" y="518" width="50" height="20" as="geometry"/>
                </mxCell>
                <mxCell id="236" value="&lt;font style=&quot;font-size: 9px;&quot;&gt;Eventname&lt;br style=&quot;font-size: 9px;&quot;&gt;Start- &amp;amp; Enddatum&lt;/font&gt;" style="text;html=1;strokeColor=none;fillColor=none;align=left;verticalAlign=middle;whiteSpace=wrap;rounded=0;fontSize=9;" parent="1" vertex="1">
                    <mxGeometry x="240" y="488" width="80" height="32" as="geometry"/>
                </mxCell>
                <mxCell id="237" value="Details" style="rounded=1;whiteSpace=wrap;html=1;fontSize=10;" parent="1" vertex="1">
                    <mxGeometry x="240" y="518" width="50" height="20" as="geometry"/>
                </mxCell>
                <mxCell id="238" value="&lt;font style=&quot;font-size: 9px;&quot;&gt;Eventname&lt;br style=&quot;font-size: 9px;&quot;&gt;Start- &amp;amp; Enddatum&lt;/font&gt;" style="text;html=1;strokeColor=none;fillColor=none;align=left;verticalAlign=middle;whiteSpace=wrap;rounded=0;fontSize=9;" parent="1" vertex="1">
                    <mxGeometry x="332" y="488" width="80" height="32" as="geometry"/>
                </mxCell>
                <mxCell id="239" value="Details" style="rounded=1;whiteSpace=wrap;html=1;fontSize=10;" parent="1" vertex="1">
                    <mxGeometry x="332" y="518" width="50" height="20" as="geometry"/>
                </mxCell>
                <mxCell id="252" value="Bild" style="rounded=0;whiteSpace=wrap;html=1;" parent="1" vertex="1">
                    <mxGeometry x="59.5" y="551" width="88" height="92" as="geometry"/>
                </mxCell>
                <mxCell id="253" value="&lt;font style=&quot;font-size: 9px;&quot;&gt;Eventname&lt;br style=&quot;font-size: 9px;&quot;&gt;Start- &amp;amp; Enddatum&lt;/font&gt;" style="text;html=1;strokeColor=none;fillColor=none;align=left;verticalAlign=middle;whiteSpace=wrap;rounded=0;fontSize=9;" parent="1" vertex="1">
                    <mxGeometry x="59.5" y="643" width="80" height="32" as="geometry"/>
                </mxCell>
                <mxCell id="254" value="Details" style="rounded=1;whiteSpace=wrap;html=1;fontSize=10;" parent="1" vertex="1">
                    <mxGeometry x="59.5" y="673" width="50" height="20" as="geometry"/>
                </mxCell>
                <mxCell id="255" value="Bild" style="rounded=0;whiteSpace=wrap;html=1;" parent="1" vertex="1">
                    <mxGeometry x="149.5" y="551" width="88" height="92" as="geometry"/>
                </mxCell>
                <mxCell id="256" value="Bild" style="rounded=0;whiteSpace=wrap;html=1;" parent="1" vertex="1">
                    <mxGeometry x="239.5" y="551" width="88" height="92" as="geometry"/>
                </mxCell>
                <mxCell id="257" value="Bild" style="rounded=0;whiteSpace=wrap;html=1;" parent="1" vertex="1">
                    <mxGeometry x="331.5" y="551" width="88" height="92" as="geometry"/>
                </mxCell>
                <mxCell id="258" value="&lt;font style=&quot;font-size: 9px;&quot;&gt;Eventname&lt;br style=&quot;font-size: 9px;&quot;&gt;Start- &amp;amp; Enddatum&lt;/font&gt;" style="text;html=1;strokeColor=none;fillColor=none;align=left;verticalAlign=middle;whiteSpace=wrap;rounded=0;fontSize=9;" parent="1" vertex="1">
                    <mxGeometry x="149.5" y="643" width="80" height="32" as="geometry"/>
                </mxCell>
                <mxCell id="259" value="Details" style="rounded=1;whiteSpace=wrap;html=1;fontSize=10;" parent="1" vertex="1">
                    <mxGeometry x="149.5" y="673" width="50" height="20" as="geometry"/>
                </mxCell>
                <mxCell id="260" value="&lt;font style=&quot;font-size: 9px;&quot;&gt;Eventname&lt;br style=&quot;font-size: 9px;&quot;&gt;Start- &amp;amp; Enddatum&lt;/font&gt;" style="text;html=1;strokeColor=none;fillColor=none;align=left;verticalAlign=middle;whiteSpace=wrap;rounded=0;fontSize=9;" parent="1" vertex="1">
                    <mxGeometry x="239.5" y="643" width="80" height="32" as="geometry"/>
                </mxCell>
                <mxCell id="261" value="Details" style="rounded=1;whiteSpace=wrap;html=1;fontSize=10;" parent="1" vertex="1">
                    <mxGeometry x="239.5" y="673" width="50" height="20" as="geometry"/>
                </mxCell>
                <mxCell id="262" value="&lt;font style=&quot;font-size: 9px;&quot;&gt;Eventname&lt;br style=&quot;font-size: 9px;&quot;&gt;Start- &amp;amp; Enddatum&lt;/font&gt;" style="text;html=1;strokeColor=none;fillColor=none;align=left;verticalAlign=middle;whiteSpace=wrap;rounded=0;fontSize=9;" parent="1" vertex="1">
                    <mxGeometry x="331.5" y="643" width="80" height="32" as="geometry"/>
                </mxCell>
                <mxCell id="263" value="Details" style="rounded=1;whiteSpace=wrap;html=1;fontSize=10;" parent="1" vertex="1">
                    <mxGeometry x="331.5" y="673" width="50" height="20" as="geometry"/>
                </mxCell>
                <mxCell id="264" value="Bundesland&lt;br&gt;Kategorie&lt;br&gt;" style="text;html=1;strokeColor=none;fillColor=none;align=left;verticalAlign=middle;whiteSpace=wrap;rounded=0;" parent="1" vertex="1">
                    <mxGeometry x="940" y="319" width="110" height="40" as="geometry"/>
                </mxCell>
                <mxCell id="266" value="&lt;b&gt;EVENTS&lt;/b&gt;" style="text;html=1;strokeColor=none;fillColor=none;align=left;verticalAlign=middle;whiteSpace=wrap;rounded=0;" parent="1" vertex="1">
                    <mxGeometry x="2260" y="89" width="60" height="20" as="geometry"/>
                </mxCell>
                <mxCell id="267" value="Alle Events" style="text;html=1;strokeColor=none;fillColor=none;align=left;verticalAlign=middle;whiteSpace=wrap;rounded=0;" parent="1" vertex="1">
                    <mxGeometry x="2410" y="89" width="70" height="20" as="geometry"/>
                </mxCell>
                <mxCell id="268" value="Registrieren" style="text;html=1;strokeColor=none;fillColor=none;align=left;verticalAlign=middle;whiteSpace=wrap;rounded=0;" parent="1" vertex="1">
                    <mxGeometry x="2490" y="89" width="70" height="20" as="geometry"/>
                </mxCell>
                <mxCell id="269" value="Login" style="rounded=1;whiteSpace=wrap;html=1;" parent="1" vertex="1">
                    <mxGeometry x="2570" y="89" width="50" height="20" as="geometry"/>
                </mxCell>
                <mxCell id="271" value="Eventname&lt;br&gt;&lt;br&gt;&lt;br&gt;Startdatum&lt;br&gt;&lt;br&gt;&lt;br&gt;Enddatum&lt;br&gt;&lt;br&gt;&lt;br&gt;Bild-URL&lt;br&gt;&lt;br&gt;&lt;br&gt;Bundesland&lt;br&gt;&lt;br&gt;&lt;br&gt;Kategorie" style="text;html=1;strokeColor=none;fillColor=none;align=left;verticalAlign=middle;whiteSpace=wrap;rounded=0;" parent="1" vertex="1">
                    <mxGeometry x="2260" y="119" width="110" height="281" as="geometry"/>
                </mxCell>
                <mxCell id="272" value="Home" style="text;html=1;strokeColor=none;fillColor=none;align=left;verticalAlign=middle;whiteSpace=wrap;rounded=0;" parent="1" vertex="1">
                    <mxGeometry x="2360" y="89" width="42" height="20" as="geometry"/>
                </mxCell>
                <mxCell id="273" value="Footer" style="rounded=0;whiteSpace=wrap;html=1;" parent="1" vertex="1">
                    <mxGeometry x="2240" y="490" width="400" height="50" as="geometry"/>
                </mxCell>
                <mxCell id="274" value="Beschreibung&lt;br&gt;&lt;br&gt;&lt;br&gt;Lorem ipsum dolor sit amet, consectetur adipiscing elit, sed do eiusmod tempor incididunt ut labore et dolore magna aliqua. Ut enim ad minim veniam, quis nostrud exercitation ullamco laboris nisi ut aliquip ex ea commodo consequat.&lt;br&gt;&lt;br&gt;Duis aute irure dolor in reprehenderit in voluptate velit esse cillum dolore eu fugiat nulla pariatur. Excepteur sint occaecat cupidatat non proident, sunt in culpa qui officia deserunt mollit anim id est laborum." style="text;html=1;strokeColor=none;fillColor=none;align=left;verticalAlign=middle;whiteSpace=wrap;rounded=0;" parent="1" vertex="1">
                    <mxGeometry x="2424" y="137" width="200" height="260" as="geometry"/>
                </mxCell>
                <mxCell id="275" value="&lt;span style=&quot;font-size: 14px&quot;&gt;&lt;b&gt;Event erstellen (und bearbeiten)&lt;/b&gt;&lt;/span&gt;" style="text;html=1;strokeColor=none;fillColor=none;align=left;verticalAlign=middle;whiteSpace=wrap;rounded=0;" parent="1" vertex="1">
                    <mxGeometry x="2240" y="39" width="385" height="20" as="geometry"/>
                </mxCell>
                <mxCell id="277" value="" style="rounded=0;whiteSpace=wrap;html=1;" parent="1" vertex="1">
                    <mxGeometry x="1800" y="69" width="400" height="850" as="geometry"/>
                </mxCell>
                <mxCell id="278" value="&lt;b&gt;EVENTS&lt;/b&gt;" style="text;html=1;strokeColor=none;fillColor=none;align=left;verticalAlign=middle;whiteSpace=wrap;rounded=0;" parent="1" vertex="1">
                    <mxGeometry x="1820" y="89" width="60" height="20" as="geometry"/>
                </mxCell>
                <mxCell id="279" value="Alle Events" style="text;html=1;strokeColor=none;fillColor=none;align=left;verticalAlign=middle;whiteSpace=wrap;rounded=0;" parent="1" vertex="1">
                    <mxGeometry x="1970" y="89" width="70" height="20" as="geometry"/>
                </mxCell>
                <mxCell id="280" value="Registrieren" style="text;html=1;strokeColor=none;fillColor=none;align=left;verticalAlign=middle;whiteSpace=wrap;rounded=0;" parent="1" vertex="1">
                    <mxGeometry x="2050" y="89" width="70" height="20" as="geometry"/>
                </mxCell>
                <mxCell id="281" value="Login" style="rounded=1;whiteSpace=wrap;html=1;" parent="1" vertex="1">
                    <mxGeometry x="2130" y="89" width="50" height="20" as="geometry"/>
                </mxCell>
                <mxCell id="282" value="Nach Eventnamen suchen" style="rounded=1;whiteSpace=wrap;html=1;arcSize=50;" parent="1" vertex="1">
                    <mxGeometry x="1871" y="149" width="255" height="30" as="geometry"/>
                </mxCell>
                <mxCell id="283" value="Suche" style="text;html=1;strokeColor=none;fillColor=none;align=center;verticalAlign=middle;whiteSpace=wrap;rounded=0;" parent="1" vertex="1">
                    <mxGeometry x="1980" y="129" width="40" height="20" as="geometry"/>
                </mxCell>
                <mxCell id="284" value="Suchen" style="rounded=1;whiteSpace=wrap;html=1;" parent="1" vertex="1">
                    <mxGeometry x="2073" y="189" width="50" height="30" as="geometry"/>
                </mxCell>
                <mxCell id="285" value="" style="group" parent="1" vertex="1" connectable="0">
                    <mxGeometry x="1873" y="189" width="95" height="30" as="geometry"/>
                </mxCell>
                <mxCell id="286" value="Startdatum" style="rounded=0;whiteSpace=wrap;html=1;" parent="285" vertex="1">
                    <mxGeometry width="70" height="30" as="geometry"/>
                </mxCell>
                <mxCell id="287" value="" style="rounded=0;whiteSpace=wrap;html=1;" parent="285" vertex="1">
                    <mxGeometry x="70" width="25" height="30" as="geometry"/>
                </mxCell>
                <mxCell id="288" value="" style="triangle;whiteSpace=wrap;html=1;rotation=90;" parent="285" vertex="1">
                    <mxGeometry x="77.5" y="10" width="10" height="10" as="geometry"/>
                </mxCell>
                <mxCell id="289" value="" style="group" parent="1" vertex="1" connectable="0">
                    <mxGeometry x="1973" y="189" width="95" height="30" as="geometry"/>
                </mxCell>
                <mxCell id="290" value="" style="rounded=0;whiteSpace=wrap;html=1;" parent="289" vertex="1">
                    <mxGeometry x="70" width="25" height="30" as="geometry"/>
                </mxCell>
                <mxCell id="291" value="Enddatum" style="rounded=0;whiteSpace=wrap;html=1;" parent="289" vertex="1">
                    <mxGeometry width="70" height="30" as="geometry"/>
                </mxCell>
                <mxCell id="292" value="" style="triangle;whiteSpace=wrap;html=1;rotation=90;" parent="289" vertex="1">
                    <mxGeometry x="77.5" y="10" width="10" height="10" as="geometry"/>
                </mxCell>
                <mxCell id="293" value="Bild" style="rounded=0;whiteSpace=wrap;html=1;" parent="1" vertex="1">
                    <mxGeometry x="1820" y="249" width="110" height="110" as="geometry"/>
                </mxCell>
                <mxCell id="294" value="Bild" style="rounded=0;whiteSpace=wrap;html=1;" parent="1" vertex="1">
                    <mxGeometry x="2070" y="249" width="110" height="110" as="geometry"/>
                </mxCell>
                <mxCell id="295" value="Bild" style="rounded=0;whiteSpace=wrap;html=1;" parent="1" vertex="1">
                    <mxGeometry x="1945" y="249" width="110" height="110" as="geometry"/>
                </mxCell>
                <mxCell id="296" value="Eventname&lt;br&gt;Start- &amp;amp; Enddatum" style="text;html=1;strokeColor=none;fillColor=none;align=left;verticalAlign=middle;whiteSpace=wrap;rounded=0;" parent="1" vertex="1">
                    <mxGeometry x="1820" y="363" width="110" height="40" as="geometry"/>
                </mxCell>
                <mxCell id="297" value="Eventname&lt;br&gt;Start- &amp;amp; Enddatum" style="text;html=1;strokeColor=none;fillColor=none;align=left;verticalAlign=middle;whiteSpace=wrap;rounded=0;" parent="1" vertex="1">
                    <mxGeometry x="1945" y="363" width="110" height="40" as="geometry"/>
                </mxCell>
                <mxCell id="298" value="Eventname&lt;br&gt;Start- &amp;amp; Enddatum" style="text;html=1;strokeColor=none;fillColor=none;align=left;verticalAlign=middle;whiteSpace=wrap;rounded=0;" parent="1" vertex="1">
                    <mxGeometry x="2070" y="363" width="110" height="40" as="geometry"/>
                </mxCell>
                <mxCell id="299" value="Bearbeiten" style="rounded=1;whiteSpace=wrap;html=1;fontSize=10;" parent="1" vertex="1">
                    <mxGeometry x="1820" y="408" width="54" height="20" as="geometry"/>
                </mxCell>
                <mxCell id="300" value="Bearbeiten" style="rounded=1;whiteSpace=wrap;html=1;fontSize=10;" parent="1" vertex="1">
                    <mxGeometry x="1945" y="408" width="54" height="20" as="geometry"/>
                </mxCell>
                <mxCell id="301" value="Bearbeiten" style="rounded=1;whiteSpace=wrap;html=1;fontSize=10;" parent="1" vertex="1">
                    <mxGeometry x="2070" y="408" width="54" height="20" as="geometry"/>
                </mxCell>
                <mxCell id="302" value="Home" style="text;html=1;strokeColor=none;fillColor=none;align=left;verticalAlign=middle;whiteSpace=wrap;rounded=0;" parent="1" vertex="1">
                    <mxGeometry x="1920" y="89" width="42" height="20" as="geometry"/>
                </mxCell>
                <mxCell id="303" value="Bild" style="rounded=0;whiteSpace=wrap;html=1;" parent="1" vertex="1">
                    <mxGeometry x="1818.5" y="459" width="110" height="110" as="geometry"/>
                </mxCell>
                <mxCell id="304" value="Bild" style="rounded=0;whiteSpace=wrap;html=1;" parent="1" vertex="1">
                    <mxGeometry x="2068.5" y="459" width="110" height="110" as="geometry"/>
                </mxCell>
                <mxCell id="305" value="Bild" style="rounded=0;whiteSpace=wrap;html=1;" parent="1" vertex="1">
                    <mxGeometry x="1943.5" y="459" width="110" height="110" as="geometry"/>
                </mxCell>
                <mxCell id="306" value="Eventname&lt;br&gt;Start- &amp;amp; Enddatum" style="text;html=1;strokeColor=none;fillColor=none;align=left;verticalAlign=middle;whiteSpace=wrap;rounded=0;" parent="1" vertex="1">
                    <mxGeometry x="1818.5" y="573" width="110" height="40" as="geometry"/>
                </mxCell>
                <mxCell id="307" value="Eventname&lt;br&gt;Start- &amp;amp; Enddatum" style="text;html=1;strokeColor=none;fillColor=none;align=left;verticalAlign=middle;whiteSpace=wrap;rounded=0;" parent="1" vertex="1">
                    <mxGeometry x="1943.5" y="573" width="110" height="40" as="geometry"/>
                </mxCell>
                <mxCell id="308" value="Eventname&lt;br&gt;Start- &amp;amp; Enddatum" style="text;html=1;strokeColor=none;fillColor=none;align=left;verticalAlign=middle;whiteSpace=wrap;rounded=0;" parent="1" vertex="1">
                    <mxGeometry x="2068.5" y="573" width="110" height="40" as="geometry"/>
                </mxCell>
                <mxCell id="309" value="Bearbeiten" style="rounded=1;whiteSpace=wrap;html=1;fontSize=10;" parent="1" vertex="1">
                    <mxGeometry x="1818.5" y="618" width="54" height="20" as="geometry"/>
                </mxCell>
                <mxCell id="310" value="Bearbeiten" style="rounded=1;whiteSpace=wrap;html=1;fontSize=10;" parent="1" vertex="1">
                    <mxGeometry x="1943.5" y="618" width="54" height="20" as="geometry"/>
                </mxCell>
                <mxCell id="311" value="Bearbeiten" style="rounded=1;whiteSpace=wrap;html=1;fontSize=10;" parent="1" vertex="1">
                    <mxGeometry x="2068.5" y="618" width="54" height="20" as="geometry"/>
                </mxCell>
                <mxCell id="312" value="Bild" style="rounded=0;whiteSpace=wrap;html=1;" parent="1" vertex="1">
                    <mxGeometry x="1818.5" y="669" width="110" height="110" as="geometry"/>
                </mxCell>
                <mxCell id="313" value="Bild" style="rounded=0;whiteSpace=wrap;html=1;" parent="1" vertex="1">
                    <mxGeometry x="2068.5" y="669" width="110" height="110" as="geometry"/>
                </mxCell>
                <mxCell id="314" value="Bild" style="rounded=0;whiteSpace=wrap;html=1;" parent="1" vertex="1">
                    <mxGeometry x="1943.5" y="669" width="110" height="110" as="geometry"/>
                </mxCell>
                <mxCell id="315" value="Eventname&lt;br&gt;Start- &amp;amp; Enddatum" style="text;html=1;strokeColor=none;fillColor=none;align=left;verticalAlign=middle;whiteSpace=wrap;rounded=0;" parent="1" vertex="1">
                    <mxGeometry x="1818.5" y="783" width="110" height="40" as="geometry"/>
                </mxCell>
                <mxCell id="316" value="Eventname&lt;br&gt;Start- &amp;amp; Enddatum" style="text;html=1;strokeColor=none;fillColor=none;align=left;verticalAlign=middle;whiteSpace=wrap;rounded=0;" parent="1" vertex="1">
                    <mxGeometry x="1943.5" y="783" width="110" height="40" as="geometry"/>
                </mxCell>
                <mxCell id="317" value="Eventname&lt;br&gt;Start- &amp;amp; Enddatum" style="text;html=1;strokeColor=none;fillColor=none;align=left;verticalAlign=middle;whiteSpace=wrap;rounded=0;" parent="1" vertex="1">
                    <mxGeometry x="2068.5" y="783" width="110" height="40" as="geometry"/>
                </mxCell>
                <mxCell id="318" value="Bearbeiten" style="rounded=1;whiteSpace=wrap;html=1;fontSize=10;" parent="1" vertex="1">
                    <mxGeometry x="1818.5" y="828" width="54" height="20" as="geometry"/>
                </mxCell>
                <mxCell id="319" value="Bearbeiten" style="rounded=1;whiteSpace=wrap;html=1;fontSize=10;" parent="1" vertex="1">
                    <mxGeometry x="1943.5" y="828" width="54" height="20" as="geometry"/>
                </mxCell>
                <mxCell id="320" value="Bearbeiten" style="rounded=1;whiteSpace=wrap;html=1;fontSize=10;" parent="1" vertex="1">
                    <mxGeometry x="2068.5" y="828" width="54" height="20" as="geometry"/>
                </mxCell>
                <mxCell id="321" value="" style="group" parent="1" vertex="1" connectable="0">
                    <mxGeometry x="1910" y="871" width="174" height="20" as="geometry"/>
                </mxCell>
                <mxCell id="322" value="1" style="rounded=1;whiteSpace=wrap;html=1;" parent="321" vertex="1">
                    <mxGeometry x="34" width="17" height="20" as="geometry"/>
                </mxCell>
                <mxCell id="323" value="2" style="rounded=1;whiteSpace=wrap;html=1;" parent="321" vertex="1">
                    <mxGeometry x="56" width="17" height="20" as="geometry"/>
                </mxCell>
                <mxCell id="324" value="3" style="rounded=1;whiteSpace=wrap;html=1;" parent="321" vertex="1">
                    <mxGeometry x="79" width="17" height="20" as="geometry"/>
                </mxCell>
                <mxCell id="325" value="4" style="rounded=1;whiteSpace=wrap;html=1;" parent="321" vertex="1">
                    <mxGeometry x="101" width="17" height="20" as="geometry"/>
                </mxCell>
                <mxCell id="326" value="5" style="rounded=1;whiteSpace=wrap;html=1;" parent="321" vertex="1">
                    <mxGeometry x="123" width="17" height="20" as="geometry"/>
                </mxCell>
                <mxCell id="327" value="&amp;lt;" style="rounded=1;whiteSpace=wrap;html=1;" parent="321" vertex="1">
                    <mxGeometry width="17" height="20" as="geometry"/>
                </mxCell>
                <mxCell id="328" value="&amp;gt;" style="rounded=1;whiteSpace=wrap;html=1;" parent="321" vertex="1">
                    <mxGeometry x="157" width="17" height="20" as="geometry"/>
                </mxCell>
                <mxCell id="329" value="Footer" style="rounded=0;whiteSpace=wrap;html=1;" parent="1" vertex="1">
                    <mxGeometry x="1800" y="919" width="400" height="50" as="geometry"/>
                </mxCell>
                <mxCell id="330" value="&lt;span style=&quot;font-size: 14px&quot;&gt;&lt;b&gt;Eventliste - Redaktionsbereich&lt;/b&gt;&lt;/span&gt;" style="text;html=1;strokeColor=none;fillColor=none;align=left;verticalAlign=middle;whiteSpace=wrap;rounded=0;" parent="1" vertex="1">
                    <mxGeometry x="1805" y="39" width="385" height="20" as="geometry"/>
                </mxCell>
                <mxCell id="331" value="Löschen" style="rounded=1;whiteSpace=wrap;html=1;fontSize=10;" parent="1" vertex="1">
                    <mxGeometry x="1878.5" y="408" width="50" height="20" as="geometry"/>
                </mxCell>
                <mxCell id="332" value="Löschen" style="rounded=1;whiteSpace=wrap;html=1;fontSize=10;" parent="1" vertex="1">
                    <mxGeometry x="2005" y="408" width="50" height="20" as="geometry"/>
                </mxCell>
                <mxCell id="333" value="Löschen" style="rounded=1;whiteSpace=wrap;html=1;fontSize=10;" parent="1" vertex="1">
                    <mxGeometry x="2128.5" y="408" width="50" height="20" as="geometry"/>
                </mxCell>
                <mxCell id="334" value="Löschen" style="rounded=1;whiteSpace=wrap;html=1;fontSize=10;" parent="1" vertex="1">
                    <mxGeometry x="1878.5" y="618" width="50" height="20" as="geometry"/>
                </mxCell>
                <mxCell id="335" value="Löschen" style="rounded=1;whiteSpace=wrap;html=1;fontSize=10;" parent="1" vertex="1">
                    <mxGeometry x="2005" y="618" width="50" height="20" as="geometry"/>
                </mxCell>
                <mxCell id="336" value="Löschen" style="rounded=1;whiteSpace=wrap;html=1;fontSize=10;" parent="1" vertex="1">
                    <mxGeometry x="2128.5" y="618" width="50" height="20" as="geometry"/>
                </mxCell>
                <mxCell id="337" value="Löschen" style="rounded=1;whiteSpace=wrap;html=1;fontSize=10;" parent="1" vertex="1">
                    <mxGeometry x="1878.5" y="828" width="50" height="20" as="geometry"/>
                </mxCell>
                <mxCell id="338" value="Löschen" style="rounded=1;whiteSpace=wrap;html=1;fontSize=10;" parent="1" vertex="1">
                    <mxGeometry x="2003.5" y="828" width="50" height="20" as="geometry"/>
                </mxCell>
                <mxCell id="339" value="Löschen" style="rounded=1;whiteSpace=wrap;html=1;fontSize=10;" parent="1" vertex="1">
                    <mxGeometry x="2128.5" y="828" width="50" height="20" as="geometry"/>
                </mxCell>
                <mxCell id="340" value="" style="rounded=1;whiteSpace=wrap;html=1;arcSize=50;" parent="1" vertex="1">
                    <mxGeometry x="2260" y="165" width="140" height="16" as="geometry"/>
                </mxCell>
                <mxCell id="341" value="" style="rounded=1;whiteSpace=wrap;html=1;arcSize=50;" parent="1" vertex="1">
                    <mxGeometry x="2260" y="207" width="140" height="16" as="geometry"/>
                </mxCell>
                <mxCell id="342" value="" style="rounded=1;whiteSpace=wrap;html=1;arcSize=50;" parent="1" vertex="1">
                    <mxGeometry x="2260" y="249" width="140" height="16" as="geometry"/>
                </mxCell>
                <mxCell id="343" value="" style="rounded=1;whiteSpace=wrap;html=1;arcSize=50;" parent="1" vertex="1">
                    <mxGeometry x="2260" y="290" width="140" height="16" as="geometry"/>
                </mxCell>
                <mxCell id="344" value="" style="rounded=1;whiteSpace=wrap;html=1;arcSize=50;" parent="1" vertex="1">
                    <mxGeometry x="2260" y="334" width="140" height="16" as="geometry"/>
                </mxCell>
                <mxCell id="346" value="Speichern" style="rounded=1;whiteSpace=wrap;html=1;" parent="1" vertex="1">
                    <mxGeometry x="2480" y="440" width="70" height="20" as="geometry"/>
                </mxCell>
                <mxCell id="347" value="Abbrechen" style="rounded=1;whiteSpace=wrap;html=1;" parent="1" vertex="1">
                    <mxGeometry x="2555" y="440" width="70" height="20" as="geometry"/>
                </mxCell>
                <mxCell id="348" value="" style="rounded=1;whiteSpace=wrap;html=1;arcSize=50;" parent="1" vertex="1">
                    <mxGeometry x="2260" y="381" width="140" height="16" as="geometry"/>
                </mxCell>
            </root>
        </mxGraphModel>
    </diagram>
</mxfile>